<svg xmlns="http://www.w3.org/2000/svg" viewBox="0 0 700.000000 700.000000"><path d="M104.5 1.5C78.1 6.1 56.1 17.2 38 35 27.9 45 24 49.8 17.8 60 10.2 72.7 4.7 87.1 2.4 100.5c-.3 1.6-1 5-1.4 7.5-.5 2.5-.9 111.1-.9 241.5 0 242.5 0 239.1 3.4 256 1.9 9.2 8.5 25 14.8 35.5 3.7 6.3 14.3 19.4 19.8 24.5 16.5 15.5 36.2 26.2 57.4 31.2 13.2 3.1 17 3.1 258 2.9 226-.2 240.4-.3 247-1.9 3.9-1 7.7-2 8.5-2.2 12-2.7 32.1-12.8 43.8-21.9 4.3-3.3 20.2-19.7 22.5-23.1 1.5-2.2 3.7-5.6 5-7.5 6.3-9.5 12.3-22.8 15.2-33.9 4.5-17.6 4.4-7.4 4.1-262.1-.2-227.4-.3-240.9-2-248-4.7-20-11.6-35-22.5-49.5-19-25.2-45.2-41.4-76.9-47.5C588.9.2 579.6.1 350 .2c-183 0-240.1.3-245.5 1.3zm163.1 162.6c-.1 11.1.3 20.3.7 20.6.6.4 152.4.7 162.7.4 1.3-.1 1.5-3 1.5-20.3v-20.3l61.8-.2 61.7-.2-.2 61.7-.3 61.7-19 .1c-10.4.1-19.7.2-20.5.3-1.3.1-1.5 9.8-1.4 81.4 0 44.8.3 81.8.6 82.3.4.5 9.6.9 20.7.8H556l-.2 61.5-.3 61.6h-123v-19.7c-.1-10.9-.4-20-.8-20.4-.8-.8-162.6-.9-163.4 0-.4.3-.7 9.6-.7 20.6v20H144.1l.2-61.7.2-61.8h19.7c10.9-.1 20-.4 20.4-.7.4-.5.8-131 .5-160.3l-.1-4h-40.5l-.2-61.7-.2-61.7h61.8l61.7-.1v20.1z"/><path d="M185.2 205.8v20.7l19.6-.1c10.9-.1 20.2-.2 20.7-.3.7-.1 1-7.3 1-20.4v-20.2l-20.6-.2-20.6-.1-.1 20.6zM473.9 186.3c-.6 4.9-.4 38.4.2 39.2.6.8 36.5 1.4 40 .6.4 0 .6-9.3.6-20.4v-20.4l-20.4-.1c-14.7 0-20.3.3-20.4 1.1zM267.9 227.5c-.1.5-.2 9.8-.3 20.5l-.1 19.5-19.5.1c-10.8 0-20 .3-20.5.6-1.2.7-1.4 162.2-.2 163.4.4.5 9.6.8 20.5.9h19.7l.1 19.7c0 10.9.4 20.1.8 20.5 1.2 1.2 163.6 1 163.7-.2.1-.5.2-9.8.3-20.5l.1-19.5 19.5-.1c10.7-.1 20-.2 20.5-.3 1.2-.1 1.4-162.5.2-163.7-.4-.5-9.7-.8-20.5-.9h-19.7l-.1-19c-.1-10.5-.2-19.7-.3-20.5-.1-1.3-9.9-1.5-82.1-1.5-54.1 0-82 .3-82.1 1zM186 474c-.5.3-.8 9.5-.7 20.5l.2 20h41v-41h-19.8c-11 0-20.3.2-20.7.5zM474.2 474c-.4.3-.7 9.5-.7 20.5v20h41l.1-20.5.1-20.5h-19.9c-10.9 0-20.2.2-20.6.5z"/></svg>