<?xml version="1.0" standalone="no"?>
<!DOCTYPE svg PUBLIC "-//W3C//DTD SVG 20010904//EN"
 "http://www.w3.org/TR/2001/REC-SVG-20010904/DTD/svg10.dtd">
<svg version="1.0" xmlns="http://www.w3.org/2000/svg"
 width="700.000000pt" height="700.000000pt" viewBox="0 0 700.000000 700.000000"
 preserveAspectRatio="xMidYMid meet">
<metadata>
Created by potrace 1.11, written by Peter Selinger 2001-2013
</metadata>
<g transform="translate(0.000000,700.000000) scale(0.100000,-0.100000)"
fill="#000000" stroke="none">
<path d="M1045 6985 c-264 -46 -484 -157 -665 -335 -101 -100 -140 -148 -202
-250 -76 -127 -131 -271 -154 -405 -3 -16 -10 -50 -14 -75 -5 -25 -9 -1111 -9
-2415 0 -2425 0 -2391 34 -2560 19 -92 85 -250 148 -355 37 -63 143 -194 198
-245 165 -155 362 -262 574 -312 132 -31 170 -31 2580 -29 2260 2 2404 3 2470
19 39 10 77 20 85 22 120 27 321 128 438 219 43 33 202 197 225 231 15 22 37
56 50 75 63 95 123 228 152 339 45 176 44 74 41 2621 -2 2274 -3 2409 -20
2480 -47 200 -116 350 -225 495 -190 252 -452 414 -769 475 -93 18 -186 19
-2482 18 -1830 0 -2401 -3 -2455 -13z m1631 -1626 c-1 -111 3 -203 7 -206 6
-4 1524 -7 1627 -4 13 1 15 30 15 203 l0 203 618 2 617 2 -2 -617 -3 -617
-190 -1 c-104 -1 -197 -2 -205 -3 -13 -1 -15 -98 -14 -814 0 -448 3 -818 6
-823 4 -5 96 -9 207 -8 l201 0 -2 -615 -3 -616 -615 0 -615 0 0 197 c-1 109
-4 200 -8 204 -8 8 -1626 9 -1634 0 -4 -3 -7 -96 -7 -206 l0 -200 -618 0 -617
0 2 617 2 618 197 0 c109 1 200 4 204 7 4 5 8 1310 5 1603 l-1 40 -202 0 -203
0 -2 617 -2 617 618 0 617 1 0 -201z"/>
<path d="M1852 4942 l0 -207 196 1 c109 1 202 2 207 3 7 1 10 73 10 204 l0
202 -206 2 -206 1 -1 -206z"/>
<path d="M4739 5137 c-6 -49 -4 -384 2 -392 6 -8 365 -14 400 -6 4 0 6 93 6
204 l0 204 -204 1 c-147 0 -203 -3 -204 -11z"/>
<path d="M2679 4725 c-1 -5 -2 -98 -3 -205 l-1 -195 -195 -1 c-108 0 -200 -3
-205 -6 -12 -7 -14 -1622 -2 -1634 4 -5 96 -8 205 -9 l197 0 1 -197 c0 -109 4
-201 8 -205 12 -12 1636 -10 1637 2 1 5 2 98 3 205 l1 195 195 1 c107 1 200 2
205 3 12 1 14 1625 2 1637 -4 5 -97 8 -205 9 l-197 0 -1 190 c-1 105 -2 197
-3 205 -1 13 -99 15 -821 15 -541 0 -820 -3 -821 -10z"/>
<path d="M1860 2260 c-5 -3 -8 -95 -7 -205 l2 -200 205 0 205 0 0 205 0 205
-198 0 c-110 0 -203 -2 -207 -5z"/>
<path d="M4742 2260 c-4 -3 -7 -95 -7 -205 l0 -200 205 0 205 0 1 205 1 205
-199 0 c-109 0 -202 -2 -206 -5z"/>
</g>
</svg>
