<svg version="1" xmlns="http://www.w3.org/2000/svg" width="933.333" height="933.333" viewBox="0 0 700.000000 700.000000"><path d="M58.8 58.4c0 .1-.2 39.3-.3 87.3-.1 78.2 0 87.2 1.4 87.5.9.2 14 .3 29.2.3l27.5-.1V350l.1 116.6-27.6-.1c-15.2 0-28.3.1-29.2.3-1.4.3-1.5 9.3-1.5 87.6v87.3l87.3-.1c78.2 0 87.3-.2 87.4-1.5.1-.9.2-13.8.3-28.6.2-14.9.4-27.3.4-27.6.1-.3 52.5-.5 116.5-.5h116.4l-.1 27.6c-.1 15.1 0 28.2.2 29.1.3 1.4 8.7 1.6 87.3 1.6 47.8 0 87-.3 87.1-.6 0-.3.2-39.6.3-87.4l.1-86.7-2-.1c-1.2-.1-13.8-.2-28.1-.3-14.3-.2-26.5-.4-27.1-.4-.7-.2-1-35.3-1-116.5l.1-116.2 26.5-.1c14.6-.1 27.7-.2 29.1-.3l2.5-.1v-87.3l-.1-87.2-87-.1c-47.8 0-87.2.3-87.5.7-.3.4-.5 13.5-.4 29.1v28.4l-116.6.1H233.4l.1-27.6c0-15.2-.1-28.3-.3-29.2-.3-1.3-9.4-1.5-87.3-1.5H58.8zM175 145.7V175h-29c-22.5 0-29-.3-29.1-1.3 0-.6-.2-13.5-.2-28.5-.2-20.1.1-27.6 1-28 .6-.4 13.8-.7 29.2-.7H175v29.2zM583.1 117c.3 1.7.4 55.7.1 56.7-.3 1-7.1 1.3-29.3 1.3H525v-28.9c0-18.4.4-29.1 1-29.3 1.6-.5 57-.3 57.1.2zm-116.5 84.7c-.1 14.8 0 27.9.2 29.3l.4 2.5 28.9-.1 28.9-.1v233.3h-28.6c-24.5-.1-28.7.1-29.3 1.4-.4.8-.6 14-.6 29.2l.1 27.8H233.4l.1-28.3c0-15.5-.1-28.7-.2-29.2-.2-.6-10.8-1-29.3-.9l-29 .1V233.4h28.6c18 .1 28.8-.3 29.3-.9.4-.6.6-13.7.6-29.3l-.1-28.2h233.2v26.7zM174.8 554.2l-.3 29.2h-28.3c-16.8.1-28.6-.3-29-.8-.6-1-1-55.5-.4-56.9.2-.4 13.3-.7 29.3-.7H175l-.2 29.2zm408.5-1.5c-.1 15.3-.2 28.5-.2 29.3-.1 1.3-4 1.5-28.8 1.4h-28.8l-.3-29.2-.2-29.2h58.5l-.2 27.7z"/></svg>